# xmcd CD database file
#
# Track frame offsets:
#	150
#	16043
#	33097
#	51242
#	69914
#	81816
#	99244
#	112152
#	132350
#	154490
#
# Disc length: 2531 seconds
#
# Revision: 0
# Processed by: cddbd v1.5.2PL0 Copyright (c) Steve Scherf et al.
# Submitted via: CDex 1.70beta2
#
DISCID=7809e10a
DTITLE=Kenny G - Christmasalbum CD 02
DYEAR=2008
DGENRE=Jazz
TTITLE0=13 I'll be home at Christmas - 13 I'll be home at Christmas
TTITLE1=14 - 14
TTITLE2=15 - 15
TTITLE3=16 - 16
TTITLE4=17 O Tannenbaum - 17 O Tannenbaum
TTITLE5=18 - 18
TTITLE6=19 - 19
TTITLE7=20 Ave Maria - 20 Ave Maria
TTITLE8=21 Should all the Quentens - 21 Should all the Quentens
TTITLE9=22 Should all the Quentens - Remix
EXTD=YEAR: 2008
EXTT0=
EXTT1=
EXTT2=
EXTT3=
EXTT4=
EXTT5=
EXTT6=
EXTT7=
EXTT8=
EXTT9=
PLAYORDER=
